<?xml version="1.0" standalone="no"?>
<!DOCTYPE svg PUBLIC "-//W3C//DTD SVG 20010904//EN"
 "http://www.w3.org/TR/2001/REC-SVG-20010904/DTD/svg10.dtd">
<svg version="1.0" xmlns="http://www.w3.org/2000/svg"
 width="371.000000pt" height="371.000000pt" viewBox="0 0 371.000000 371.000000"
 preserveAspectRatio="xMidYMid meet">
<metadata>
Created by potrace 1.14, written by Peter Selinger 2001-2017
</metadata>
<g transform="translate(0.000000,371.000000) scale(0.100000,-0.100000)"
fill="#000000" stroke="none">
<path d="M1838 2555 c-3 -3 -35 -13 -69 -21 -75 -17 -151 -44 -160 -56 -3 -5
-16 -10 -27 -11 -12 -1 -22 -5 -22 -9 0 -4 -7 -8 -15 -8 -8 0 -15 -3 -15 -8 0
-4 -14 -13 -31 -21 -17 -7 -70 -52 -118 -99 l-86 -86 -125 -1 c-69 -1 -135 -4
-148 -8 -153 -41 -250 -107 -350 -235 -23 -30 -42 -59 -42 -65 -1 -27 -20 -39
-82 -47 -36 -5 -79 -15 -94 -21 -16 -7 -36 -13 -44 -15 -8 -2 -16 -8 -18 -13
-2 -6 -10 -11 -18 -11 -7 0 -43 -29 -79 -64 -65 -64 -119 -155 -129 -221 -2
-16 -5 -30 -6 -30 -4 0 -6 -101 -1 -110 5 -10 7 -18 12 -72 2 -18 7 -33 11
-33 4 0 8 -8 8 -17 1 -47 -8 -46 450 -46 l431 0 417 416 c230 229 423 417 430
417 6 0 12 -4 12 -10 0 -5 5 -10 11 -10 7 0 17 -7 24 -16 12 -17 17 -3 40 96
2 8 13 49 25 90 28 100 34 140 24 140 -5 0 -43 -9 -83 -20 -41 -12 -81 -18
-90 -15 -8 3 -12 3 -8 -2 7 -7 -43 -24 -113 -39 -36 -8 -36 -11 -7 -42 l26
-27 -393 -393 -393 -392 -322 0 -322 0 2 45 c2 25 6 45 11 45 4 0 5 7 2 15 -4
8 -1 15 5 15 6 0 11 6 11 14 0 28 89 115 123 120 7 1 17 5 23 9 23 14 141 9
205 -9 16 -4 18 0 36 71 2 11 5 26 5 33 1 6 5 12 10 12 5 0 6 5 3 10 -3 6 -1
10 5 10 6 0 9 4 6 9 -7 10 46 85 87 124 34 32 106 76 134 82 10 2 33 8 51 14
54 16 170 6 242 -22 l66 -24 33 59 c18 33 60 87 94 122 62 62 160 130 171 119
3 -4 6 -2 6 4 0 6 12 14 28 18 15 5 32 9 37 11 79 23 116 31 143 30 17 -1 32
2 32 5 0 3 6 6 13 7 6 0 30 5 51 11 22 5 44 7 49 4 6 -4 7 -1 2 7 -6 10 -4 12
7 7 9 -3 19 -3 22 1 4 3 12 7 19 8 7 1 20 5 30 9 20 8 19 0 -9 -99 -8 -27 -14
-55 -14 -62 0 -6 52 40 115 104 63 64 113 117 112 118 -1 1 -11 4 -22 6 -11 1
-22 6 -25 10 -3 4 -19 9 -35 12 -17 2 -30 5 -30 6 0 1 -7 3 -15 5 -95 23 -145
33 -175 34 -16 0 -38 2 -48 4 -10 2 -40 0 -67 -3 -27 -4 -51 -2 -52 2 -2 5 -6
6 -10 3z"/>
<path d="M2349 2194 c-46 -48 -86 -86 -88 -84 -2 1 -7 -3 -11 -9 -8 -14 -223
-233 -230 -235 -2 -1 -27 -26 -55 -57 -70 -78 -80 -84 -105 -59 -19 19 -40 27
-40 15 0 -5 -40 -156 -70 -267 -12 -45 -15 -65 -7 -63 30 11 275 77 302 82 17
3 31 6 32 7 1 1 -11 17 -27 34 l-30 33 215 214 c199 198 219 216 268 230 68
20 129 24 190 13 48 -9 126 -39 150 -57 52 -41 107 -96 107 -107 0 -8 4 -14 8
-14 7 0 45 -71 48 -90 0 -3 6 -18 12 -33 7 -16 10 -33 7 -38 -3 -4 7 -11 22
-14 53 -12 113 -37 113 -47 0 -6 3 -8 7 -5 9 9 63 -43 63 -60 0 -7 4 -13 9
-13 14 0 31 -52 34 -100 l2 -45 -730 -5 c-534 -4 -739 -8 -764 -17 -19 -7 -38
-10 -42 -7 -5 3 -9 1 -9 -4 0 -5 -13 -12 -30 -14 -16 -3 -30 -4 -30 -3 0 0 11
39 24 85 14 47 23 86 21 88 -2 2 -76 -67 -164 -154 -88 -87 -159 -159 -157
-161 5 -5 2028 -5 2033 0 13 13 44 151 45 198 1 63 -17 149 -40 194 -9 17 -16
33 -17 36 0 3 -16 26 -35 51 -38 50 -119 115 -163 130 -21 8 -37 29 -63 81
-32 63 -164 217 -187 217 -4 0 -24 11 -45 25 -41 27 -138 64 -192 72 -48 8
-157 8 -203 1 -37 -6 -67 9 -67 33 0 25 -34 1 -111 -77z"/>
</g>
</svg>
